# xmcd CD database file
# Copyright (C) 1993-1996 Ti Kan
#
# Track frame offsets:
#  183
#  62605
#  107385
#  123213
#  192900
#  210463
#  250905
#
# Disc length: 4167 seconds
#
# Revision: 6
# Processed by: cddbd v1.5.2PL0 Copyright (c) Steve Scherf et al.
# Submitted via: Advanced CD Ripper Pro 2.0
#
DISCID=56104507
DTITLE=Woodstock / Woodstock Disc 2
DYEAR=1970
DGENRE=Classic Rock
TTITLE0=Santana / Soul Sacrifice
TTITLE1=Ten Years After / I'm Going Home
TTITLE2=Jefferson Airplane / Volunteers
TTITLE3=Sly & The Family Stone / Dance To The Music & Music Lover & IWant To Take You Higher
TTITLE4=John B. Sabastian / Rainbows All Over Your Blues
TTITLE5=Butterfield Blues Band / Love March
TTITLE6=Jimi Hendrix / Star Spangled Banner & Purple Haze & Instrumental Solo
EXTD=
EXTT0=
EXTT1=
EXTT2=
EXTT3=
EXTT4=
EXTT5=
EXTT6=
PLAYORDER=
.
